<?xml version="1.0" encoding="UTF-8"?>
<svg width="513px" height="515px" viewBox="0 0 513 515" version="1.1" xmlns="http://www.w3.org/2000/svg" xmlns:xlink="http://www.w3.org/1999/xlink">
    <!-- Generator: Sketch 50.2 (55047) - http://www.bohemiancoding.com/sketch -->
    <title>bell 2</title>
    <desc>Created with Sketch.</desc>
    <defs></defs>
    <g id="Page-1" stroke="none" stroke-width="1" fill="none" fill-rule="evenodd" fill-opacity="0.680000007">
        <g id="bell" fill="#000000">
            <path d="M480.923257,447.789655 L320.37489,447.789655 C320.37489,483.119283 291.622909,511.759606 256.155543,511.759606 C220.688177,511.759606 191.936196,483.119283 191.936196,447.789655 L31.3878293,447.789655 C17.8707352,447.439683 6.15693381,438.36433 2.48912328,425.400172 C-1.37880007,412.80322 2.36935185,399.113368 12.1220253,390.216699 C44.3607345,365.96928 63.3671676,328.104036 63.4975027,287.864777 L63.4975027,191.90985 C63.4975049,85.9209658 149.753447,1.2644054e-07 256.155543,1.26440546e-07 C362.557639,1.26440553e-07 448.813581,85.9209658 448.813583,191.90985 L448.813583,287.864777 C448.943918,328.104036 467.950351,365.96928 500.189061,390.216699 C510.921952,398.489372 514.852414,412.8451 509.821963,425.400172 C506.154152,438.36433 494.440351,447.439683 480.923257,447.789655 Z" id="Path_677"></path>
        </g>
    </g>
</svg>